<?xml version="1.0" encoding="utf-8"?>
<!-- Generator: Adobe Illustrator 23.1.1, SVG Export Plug-In . SVG Version: 6.00 Build 0)  -->
<svg version="1.1" id="Layer_1" xmlns="http://www.w3.org/2000/svg" xmlns:xlink="http://www.w3.org/1999/xlink" x="0px" y="0px"
	 viewBox="0 0 24 24" style="enable-background:new 0 0 24 24;" xml:space="preserve">
<style type="text/css">
	.st0{fill:none;}
	.st1{display:none;}
	.st2{display:inline;fill:#FFFFFF;}
	.st3{display:inline;}
	.st4{display:none;fill:#FFFFFF;}
</style>
<path class="st0" d="M0,0h24v24H0V0z"/>
<path class="st1" d="M17,3l6,6v10c0,1.1-0.9,2-2,2H8c-1.1,0-2-0.9-2-2L6,5c0-1.1,0.9-2,2-2H17z M16,10h5.5L16,4.5V10z"/>
<g class="st1">
	<path class="st2" d="M10.1,13.1l0.8-1.7h1.4l-1.4,2.5l1.4,2.5H11l-0.8-1.7l-0.8,1.7H7.9l1.4-2.5L8,11.4h1.4L10.1,13.1z"/>
	<path class="st2" d="M14.3,11.4l1.1,3.5l1.1-3.5h1.6v5h-1.2v-1.2l0.1-2.4l-1.2,3.5H15l-1.2-3.5l0.1,2.4v1.2h-1.2v-5H14.3z"/>
	<path class="st2" d="M20.1,15.5h2.1v0.9h-3.3v-5h1.2V15.5z"/>
</g>
<g class="st1">
	<polygon class="st3" points="3.6,13.5 3.6,6.5 0.1,6.5 5,1.6 9.9,6.5 6.4,6.5 6.4,13.5 	"/>
	<path class="st2" d="M5,2.1l4,4H6v7H4v-7H1L5,2.1 M5,1.1L4.5,1.6l-4,4l-1.3,1.3H1h2.2v6.3v0.8H4h2h0.8v-0.8V6.9H9h1.8L9.5,5.6l-4-4
		L5,1.1L5,1.1z"/>
</g>
<g>
	<polygon points="6,18.1 6,11.1 4,11.1 4,18.1 1,18.1 5,22.1 9,18.1 	"/>
</g>
<path class="st1" d="M21,3H8C6.9,3,6,3.9,6,5v14c0,1.1,0.9,2,2,2h13c1.1,0,2-0.9,2-2V5C23,3.9,22.1,3,21,3z"/>
<g>
	<path d="M15,8.8c-1.7,0-3,1.2-3,2.8s1.3,2.8,3,2.8s3-1.2,3-2.8S16.7,8.8,15,8.8z M15,13.3c-1.1,0-1.9-0.8-1.9-1.8
		c0-1,0.9-1.8,1.9-1.8s1.9,0.8,1.9,1.8C16.9,12.5,16.1,13.3,15,13.3z"/>
	<path d="M21,3H8C6.9,3,6,3.9,6,5v5.4h0.8v0.8v6.3H9h1.8l-1.3,1.3l-2.2,2.2C7.5,20.9,7.8,21,8,21h13c1.1,0,2-0.9,2-2V5
		C23,3.9,22.1,3,21,3z M21,14.9c0,0.6-0.5,1.1-1.2,1.1h-9.6C9.5,16,9,15.5,9,14.9V8.2c0-0.6,0.5-1.1,1.2-1.1h1.9L13.2,6h3.6l1.1,1.1
		h1.9c0.7,0,1.2,0.5,1.2,1.1V14.9z"/>
</g>
<path class="st4" d="M18.3,10V7.7C18.3,7.3,18,7,17.7,7h-8C9.3,7,9,7.3,9,7.7v6.7C9,14.7,9.3,15,9.7,15h8c0.4,0,0.7-0.3,0.7-0.7V12
	l2.7,2.7V7.3L18.3,10z"/>
</svg>
