<?xml version="1.0" encoding="utf-8"?>
<!-- Generator: Adobe Illustrator 23.1.1, SVG Export Plug-In . SVG Version: 6.00 Build 0)  -->
<svg version="1.1" id="Layer_1" xmlns="http://www.w3.org/2000/svg" xmlns:xlink="http://www.w3.org/1999/xlink" x="0px" y="0px"
	 viewBox="0 0 24 24" style="enable-background:new 0 0 24 24;" xml:space="preserve">
<style type="text/css">
	.st0{fill:none;}
	.st1{display:none;}
	.st2{display:inline;}
	.st3{display:inline;fill:#FFFFFF;}
</style>
<path class="st0" d="M0,0h24v24H0V0z"/>
<g>
	<polygon points="4,6.1 4,13.1 6,13.1 6,6.1 9,6.1 5,2.1 1,6.1 	"/>
	<g>
		<path d="M17,3H8C7.7,3,7.4,3.1,7.1,3.2l2.4,2.4l1.3,1.3H9H6.8v6.3V14H6v5c0,1.1,0.9,2,2,2h13c1.1,0,2-0.9,2-2V9L17,3z M16,4.5
			l5.5,5.5H16V4.5z"/>
		<path d="M6.5,3.7C6.2,4,6,4.5,6,5v1.1h3L6.5,3.7z"/>
	</g>
</g>
<g class="st1">
	<polygon class="st2" points="0.1,17.7 3.6,17.7 3.6,10.7 6.4,10.7 6.4,17.7 9.9,17.7 5,22.6 	"/>
	<path class="st3" d="M6,11.1v7h3l-4,4l-4-4h3v-7H6 M6.8,10.4H6H4H3.2v0.8v6.3H1h-1.8l1.3,1.3l4,4L5,23.2l0.5-0.5l4-4l1.3-1.3H9H6.8
		v-6.3V10.4L6.8,10.4z"/>
</g>
<g class="st1">
	<polygon class="st2" points="0.1,17.7 3.6,17.7 3.6,10.7 6.4,10.7 6.4,17.7 9.9,17.7 5,22.6 	"/>
	<path class="st3" d="M6,11.1v7h3l-4,4l-4-4h3v-7H6 M6.8,10.4H6H4H3.2v0.8v6.3H1h-1.8l1.3,1.3l4,4L5,23.2l0.5-0.5l4-4l1.3-1.3H9H6.8
		v-6.3V10.4L6.8,10.4z"/>
</g>
<path class="st1" d="M21,3H8C6.9,3,6,3.9,6,5v14c0,1.1,0.9,2,2,2h13c1.1,0,2-0.9,2-2V5C23,3.9,22.1,3,21,3z"/>
</svg>
